<svg id="visual" viewBox="0 0 960 540" width="960" height="540" xmlns="http://www.w3.org/2000/svg" xmlns:xlink="http://www.w3.org/1999/xlink" version="1.1"><rect x="0" y="0" width="960" height="540" fill="#ffffff"></rect><path d="M0 299L20 273.7C40 248.3 80 197.7 120 193.7C160 189.7 200 232.3 240 242.7C280 253 320 231 360 223.5C400 216 440 223 480 213.3C520 203.7 560 177.3 600 171C640 164.7 680 178.3 720 182.2C760 186 800 180 840 198.2C880 216.3 920 258.7 940 279.8L960 301L960 0L940 0C920 0 880 0 840 0C800 0 760 0 720 0C680 0 640 0 600 0C560 0 520 0 480 0C440 0 400 0 360 0C320 0 280 0 240 0C200 0 160 0 120 0C80 0 40 0 20 0L0 0Z" fill="#fa7268"></path><path d="M0 135L20 135.5C40 136 80 137 120 146.8C160 156.7 200 175.3 240 190C280 204.7 320 215.3 360 217.8C400 220.3 440 214.7 480 203.2C520 191.7 560 174.3 600 168.3C640 162.3 680 167.7 720 177.5C760 187.3 800 201.7 840 213.5C880 225.3 920 234.7 940 239.3L960 244L960 0L940 0C920 0 880 0 840 0C800 0 760 0 720 0C680 0 640 0 600 0C560 0 520 0 480 0C440 0 400 0 360 0C320 0 280 0 240 0C200 0 160 0 120 0C80 0 40 0 20 0L0 0Z" fill="#f16367"></path><path d="M0 122L20 135.8C40 149.7 80 177.3 120 181.8C160 186.3 200 167.7 240 149.5C280 131.3 320 113.7 360 106.7C400 99.7 440 103.3 480 122.3C520 141.3 560 175.7 600 176.3C640 177 680 144 720 125.3C760 106.7 800 102.3 840 107C880 111.7 920 125.3 940 132.2L960 139L960 0L940 0C920 0 880 0 840 0C800 0 760 0 720 0C680 0 640 0 600 0C560 0 520 0 480 0C440 0 400 0 360 0C320 0 280 0 240 0C200 0 160 0 120 0C80 0 40 0 20 0L0 0Z" fill="#e85467"></path><path d="M0 109L20 112.5C40 116 80 123 120 116.8C160 110.7 200 91.3 240 87.8C280 84.3 320 96.7 360 108.2C400 119.7 440 130.3 480 132.3C520 134.3 560 127.7 600 128C640 128.3 680 135.7 720 126.8C760 118 800 93 840 86C880 79 920 90 940 95.5L960 101L960 0L940 0C920 0 880 0 840 0C800 0 760 0 720 0C680 0 640 0 600 0C560 0 520 0 480 0C440 0 400 0 360 0C320 0 280 0 240 0C200 0 160 0 120 0C80 0 40 0 20 0L0 0Z" fill="#de4467"></path><path d="M0 36L20 46.3C40 56.7 80 77.3 120 81.3C160 85.3 200 72.7 240 77.2C280 81.7 320 103.3 360 108C400 112.7 440 100.3 480 92.5C520 84.7 560 81.3 600 76.7C640 72 680 66 720 67.7C760 69.3 800 78.7 840 78.8C880 79 920 70 940 65.5L960 61L960 0L940 0C920 0 880 0 840 0C800 0 760 0 720 0C680 0 640 0 600 0C560 0 520 0 480 0C440 0 400 0 360 0C320 0 280 0 240 0C200 0 160 0 120 0C80 0 40 0 20 0L0 0Z" fill="#d23467"></path><path d="M0 39L20 38.2C40 37.3 80 35.7 120 33.3C160 31 200 28 240 30.2C280 32.3 320 39.7 360 39.3C400 39 440 31 480 32.3C520 33.7 560 44.3 600 50C640 55.7 680 56.3 720 59.2C760 62 800 67 840 67.5C880 68 920 64 940 62L960 60L960 0L940 0C920 0 880 0 840 0C800 0 760 0 720 0C680 0 640 0 600 0C560 0 520 0 480 0C440 0 400 0 360 0C320 0 280 0 240 0C200 0 160 0 120 0C80 0 40 0 20 0L0 0Z" fill="#c62368"></path></svg>